<svg width="24" height="24" viewBox="0 0 24 24" fill="none" xmlns="http://www.w3.org/2000/svg">
<path d="M4.98292 7.1968C6.19132 7.1968 7.17092 6.2172 7.17092 5.0088C7.17092 3.8004 6.19132 2.8208 4.98292 2.8208C3.77452 2.8208 2.79492 3.8004 2.79492 5.0088C2.79492 6.2172 3.77452 7.1968 4.98292 7.1968Z" fill="#989898"/>
<path d="M9.23692 8.8548L9.23692 20.9938L13.0059 20.9938L13.0059 14.9908C13.0059 13.4068 13.3039 11.8728 15.2679 11.8728C17.2049 11.8728 17.2289 13.6838 17.2289 15.0908L17.2289 20.9948L20.9999 20.9948L20.9999 14.3378C20.9999 11.0678 20.2959 8.5548 16.4739 8.5548C14.6389 8.5548 13.4089 9.5618 12.9059 10.5148L12.8549 10.5148L12.8549 8.8548L9.23692 8.8548ZM3.09492 8.8548L6.86992 8.8548L6.86992 20.9938L3.09492 20.9938L3.09492 8.8548Z" fill="#989898"/>
</svg>
